<svg width="26" height="23" viewBox="0 0 26 23" fill="none" xmlns="http://www.w3.org/2000/svg">
<path d="M10.5126 17.1703C8.92764 17.1703 7.63818 18.4598 7.63818 20.0448C7.63818 21.6302 8.92764 22.92 10.5126 22.92C12.0977 22.92 13.3872 21.6302 13.3872 20.0448C13.3872 18.4598 12.0977 17.1703 10.5126 17.1703ZM10.5126 21.0626C9.95175 21.0626 9.49547 20.606 9.49547 20.0447C9.49547 19.4838 9.95175 19.0275 10.5126 19.0275C11.0736 19.0275 11.5299 19.4838 11.5299 20.0447C11.5299 20.606 11.0736 21.0626 10.5126 21.0626Z" fill="white"/>
<path d="M20.1011 17.1703C18.5161 17.1703 17.2266 18.4598 17.2266 20.0448C17.2266 21.6302 18.5161 22.92 20.1011 22.92C21.6863 22.92 22.976 21.6302 22.976 20.0448C22.976 18.4598 21.6863 17.1703 20.1011 17.1703ZM20.1011 21.0626C19.5402 21.0626 19.0839 20.606 19.0839 20.0447C19.0839 19.4838 19.5402 19.0275 20.1011 19.0275C20.6622 19.0275 21.1187 19.4838 21.1187 20.0447C21.1187 20.606 20.6622 21.0626 20.1011 21.0626Z" fill="white"/>
<path d="M25.6559 4.04467C25.4801 3.81721 25.2088 3.68398 24.9213 3.68398H6.41088L5.63367 0.694872C5.52718 0.285651 5.1577 0 4.73486 0H0.928647C0.415786 0 0 0.415784 0 0.928642C0 1.4415 0.415786 1.85728 0.928647 1.85728H4.01683L4.78711 4.81928C4.79132 4.83785 4.79615 4.8563 4.80148 4.8745L7.6679 15.8971C7.77438 16.3063 8.14386 16.592 8.56671 16.592H22.0474C22.4703 16.592 22.8398 16.3063 22.9462 15.8971L25.8202 4.84627C25.8924 4.56818 25.8317 4.272 25.6559 4.04467ZM21.3293 14.7348H9.28461L6.89378 5.54127H23.7201L21.3293 14.7348Z" fill="white"/>
</svg>
