<svg width="121" height="39" viewBox="0 0 121 39" fill="none" xmlns="http://www.w3.org/2000/svg">
<path d="M31.7807 23.4665C31.6106 24.2785 30.7505 27.007 30.4638 27.8189H17.1538V27.0826C19.7585 26.8456 19.9869 26.7144 19.9869 24.4853V14.086C19.9869 11.8568 19.7002 11.7257 17.4114 11.5189V10.7826H25.0844V11.5189C22.7956 11.7307 22.4798 11.8316 22.4798 14.086V24.7526C22.4798 26.3513 22.7081 26.7195 24.3409 26.7447C24.3701 26.7447 26.4305 26.7699 26.6006 26.7699C28.0584 26.7699 28.4909 26.6136 29.1469 25.9579C29.8612 25.2771 30.4638 24.2281 30.8914 23.2598L31.7807 23.4665Z" fill="white"/>
<path d="M45.0906 27.8189V27.0826C46.9518 26.8708 47.1801 26.6085 46.7817 25.615C46.4075 24.5912 45.8389 23.2799 45.2364 21.6308H39.0503C38.5935 22.8109 38.161 23.8347 37.7626 24.9089C37.1308 26.6136 37.5342 26.8204 39.8813 27.0826V27.8189H33.2676V27.0826C35.0704 26.8708 35.5272 26.6892 36.5331 24.329L42.4568 10.5657L43.3703 10.4094C45.1732 14.8929 47.151 19.8454 48.9538 24.3794C49.8674 26.659 50.1298 26.8708 52.1611 27.0776V27.8139H45.0906V27.8189ZM42.2284 13.8489C41.3148 16.1033 40.3381 18.4888 39.4828 20.5566H44.833L42.2284 13.8489Z" fill="white"/>
<path d="M70.3062 23.6229C69.9077 24.8787 69.1594 26.7699 68.7318 27.5819C67.9008 27.7382 65.6703 28.2123 63.4933 28.2123C56.6512 28.2123 53.1621 24.0465 53.1621 19.4571C53.1621 14.1112 57.5988 10.4144 64.0084 10.4144C66.4721 10.4144 68.4742 10.8885 69.4169 11.0196C69.5336 12.1998 69.7328 13.7733 69.9612 15.0845L69.0719 15.2661C68.4985 13.511 67.8133 12.4368 66.3506 11.8871C65.6071 11.5744 64.4312 11.3878 63.3475 11.3878C58.6241 11.3878 56.1361 14.5853 56.1361 18.9124C56.1361 23.9709 58.9983 27.2238 63.6342 27.2238C66.5547 27.2238 67.9834 25.9932 69.4461 23.3707L70.3062 23.6229Z" fill="white"/>
<path d="M92.9754 11.5139C90.5992 11.7257 90.3708 11.8568 90.3708 14.0557V24.566C90.3708 26.7699 90.6283 26.8456 92.9754 27.0826V27.8189H85.3024V27.0826C87.6786 26.8204 87.907 26.7699 87.907 24.566V19.326H78.1153V24.566C78.1153 26.7397 78.3437 26.8204 80.6908 27.0826V27.8189H73.0469V27.0826C75.3648 26.8456 75.6224 26.7699 75.6224 24.566V14.0557C75.6224 11.8518 75.3648 11.7207 73.0469 11.5139V10.7776H80.6908V11.5139C78.402 11.6954 78.1153 11.882 78.1153 14.0557V18.2215H87.907V14.0557C87.907 11.882 87.5912 11.6954 85.3024 11.5139V10.7776H92.9754V11.5139Z" fill="white"/>
<path d="M95.8623 27.8189V27.0826C98.2094 26.8456 98.4378 26.7397 98.4378 24.5156V14.1112C98.4378 11.8568 98.2094 11.7509 95.8623 11.5139V10.7776H103.535V11.5139C101.159 11.7509 100.931 11.8568 100.931 14.1112V24.5156C100.931 26.7699 101.159 26.8506 103.535 27.0826V27.8189H95.8623Z" fill="white"/>
<path d="M102.048 39H18.9518C5.93337 39 0 28.8932 0 19.4975C0 10.1068 5.92851 0 18.9518 0H102.048C115.067 0 121 10.1068 121 19.5025C121 28.8932 115.071 39 102.048 39ZM18.9518 1.48778C6.87124 1.48778 1.3655 10.823 1.3655 19.4975C1.3655 28.172 6.86638 37.5072 18.9518 37.5072H102.048C114.129 37.5072 119.634 28.172 119.634 19.4975C119.634 10.823 114.134 1.48778 102.048 1.48778H18.9518Z" fill="white"/>
<path d="M19.7878 34.7485C13.9468 34.7485 9.28171 32.1461 6.63331 27.4105C3.93147 22.5689 3.91689 16.3303 6.5993 11.529C9.24283 6.79336 14.0051 4.20613 19.953 4.26161H101.047C106.952 4.191 111.694 6.81857 114.362 11.5996C117.064 16.4412 117.079 22.6798 114.396 27.4861C111.753 32.2218 107.01 34.804 101.038 34.7535H19.953C19.8996 34.7485 19.8413 34.7485 19.7878 34.7485ZM19.7927 5.64348C14.3938 5.64348 10.1224 7.97349 7.75098 12.225C5.30669 16.6077 5.32127 22.2965 7.785 26.7145C10.1807 31.0063 14.4424 33.3616 19.7927 33.3616C19.8413 33.3616 19.8947 33.3616 19.9433 33.3616H101.047C101.101 33.3616 101.149 33.3616 101.203 33.3616C106.607 33.3616 110.878 31.0316 113.245 26.78C115.689 22.3974 115.674 16.7085 113.211 12.2906C110.815 7.99871 106.558 5.64348 101.203 5.64348C101.154 5.64348 101.101 5.64348 101.052 5.64348H19.9482C19.8947 5.64348 19.8413 5.64348 19.7927 5.64348Z" fill="white"/>
</svg>
