<svg width="12" height="11" viewBox="0 0 12 11" fill="none" xmlns="http://www.w3.org/2000/svg">
<path d="M10.7247 4.94992H6.3248V0.549904C6.3248 0.246371 6.07836 -6.10352e-05 5.77473 -6.10352e-05C5.4712 -6.10352e-05 5.22477 0.246371 5.22477 0.549904V4.94992H0.824745C0.521212 4.94992 0.27478 5.19636 0.27478 5.49989C0.27478 5.80352 0.521212 6.04995 0.824745 6.04995H5.22477V10.4499C5.22477 10.7535 5.4712 10.9999 5.77473 10.9999C6.07836 10.9999 6.3248 10.7535 6.3248 10.4499V6.04995H10.7247C11.0283 6.04995 11.2748 5.80352 11.2748 5.49989C11.2748 5.19636 11.0283 4.94992 10.7247 4.94992Z" fill="black" fill-opacity="0.8"/>
</svg>
