<svg width="14" height="15" viewBox="0 0 14 15" fill="none" xmlns="http://www.w3.org/2000/svg">
<path d="M6.5425 0.742693C7.96283 0.649664 9.37778 0.99184 10.5987 1.72359C11.8195 2.45534 12.7883 3.54189 13.3759 4.83836C13.9634 6.13483 14.1417 7.5796 13.8871 8.98001C13.6324 10.3804 12.9569 11.6699 11.9506 12.6766C10.9443 13.6833 9.65503 14.3592 8.2547 14.6144C6.85438 14.8695 5.40955 14.6917 4.11287 14.1046C2.8162 13.5175 1.72931 12.5491 0.99713 11.3285C0.264951 10.1079 -0.0777206 8.69304 0.0148106 7.27267C0.126912 5.57806 0.850575 3.98181 2.05126 2.78071C3.25194 1.57961 4.84793 0.855388 6.5425 0.742693ZM1.67875 8.21957C1.77204 9.2313 2.15162 10.1955 2.77306 10.9993C3.39449 11.8031 4.23206 12.4133 5.1877 12.7583C6.14334 13.1033 7.1775 13.169 8.16909 12.9475C9.16069 12.7261 10.0687 12.2268 10.7868 11.508C11.5048 10.7892 12.0033 9.8807 12.2237 8.88889C12.4442 7.89708 12.3775 6.86299 12.0316 5.90769C11.6856 4.95239 11.0746 4.11542 10.2702 3.49477C9.4658 2.87413 8.50122 2.4955 7.4894 2.40321C6.70842 2.33378 5.92171 2.43662 5.18481 2.70445C4.44792 2.97229 3.77878 3.39859 3.22464 3.95328C2.67049 4.50797 2.24485 5.17753 1.97774 5.91469C1.71063 6.65185 1.60856 7.43866 1.67875 8.21957Z" fill="black" fill-opacity="0.8"/>
</svg>
