<svg width="14" height="15" viewBox="0 0 14 15" fill="none" xmlns="http://www.w3.org/2000/svg">
<path d="M6.77125 4.92949C7.3441 4.88244 7.91759 5.01235 8.41425 5.30168C8.9109 5.591 9.30679 6.02579 9.54843 6.54731C9.79007 7.06883 9.86583 7.65196 9.76545 8.21791C9.66508 8.78386 9.39341 9.30536 8.98716 9.71198C8.58091 10.1186 8.05965 10.3907 7.49379 10.4916C6.92793 10.5925 6.34474 10.5172 5.82301 10.2761C5.30127 10.0349 4.86613 9.63939 4.57636 9.14299C4.2866 8.64659 4.15618 8.07321 4.20272 7.50032C4.25661 6.83687 4.54447 6.21415 5.01493 5.74327C5.48539 5.27238 6.10785 4.98397 6.77125 4.92949Z" fill="black" fill-opacity="0.8"/>
<path d="M6.54135 0.742768C7.96172 0.649503 9.37676 0.991471 10.5978 1.72307C11.8188 2.45467 12.7878 3.54112 13.3755 4.83756C13.9632 6.13399 14.1417 7.57879 13.8872 8.97928C13.6327 10.3798 12.9573 11.6694 11.951 12.6762C10.9448 13.6829 9.65553 14.359 8.25517 14.6143C6.85482 14.8695 5.40993 14.6918 4.11319 14.1047C2.81644 13.5177 1.72948 12.5493 0.997236 11.3287C0.264997 10.108 -0.0777138 8.69316 0.0148047 7.27274C0.126875 5.57832 0.850379 3.98222 2.05082 2.78114C3.25127 1.58007 4.84698 0.855729 6.54135 0.742768ZM1.67646 8.21965C1.76975 9.23137 2.14933 10.1956 2.77077 10.9994C3.3922 11.8032 4.22977 12.4133 5.18541 12.7584C6.14105 13.1034 7.17521 13.169 8.1668 12.9476C9.1584 12.7262 10.0664 12.2268 10.7845 11.508C11.5025 10.7893 12.001 9.88078 12.2215 8.88897C12.4419 7.89716 12.3752 6.86306 12.0293 5.90776C11.6833 4.95247 11.0724 4.11549 10.2679 3.49485C9.46351 2.8742 8.49893 2.49557 7.48711 2.40328C6.70617 2.33406 5.91956 2.43704 5.18275 2.70495C4.44595 2.97286 3.77689 3.39917 3.2228 3.95381C2.6687 4.50846 2.24305 5.17792 1.97586 5.91499C1.70868 6.65206 1.60648 7.43878 1.67646 8.21965Z" fill="black" fill-opacity="0.8"/>
</svg>
